name rise30.2954peak35.7071fall66.7804.mot
datacolumns 19
datarows 27
range 11.87829700000000 11.92162800000000
endheader
time	ground_force1_vx	ground_force1_vy	ground_force1_vz	ground_force1_px	ground_force1_py	ground_force1_pz	ground_force2_vx	ground_force2_vy	ground_force2_vz	ground_force2_px	ground_force2_py	ground_force2_pz	ground_torque1_x	ground_torque1_y	ground_torque1_z	ground_torque2_x	ground_torque2_y	ground_torque2_z	
11.87829700000000	42.90814800000000	721.63325599999996	57.96703000000000	0.31022400000000	0.00000000000000	0.16383900000000	0.00000000000000	0.00000000000000	0.00000000000000	0.00000000000000	0.00000000000000	0.00000000000000	0.00000000000000	20.65364100000000	0.00000000000000	0.00000000000000	0.00000000000000	0.00000000000000	
11.87996000000000	42.43924100000000	725.25377800000001	58.21435000000000	0.30940400000000	0.00000000000000	0.16378800000000	0.00000000000000	0.00000000000000	0.00000000000000	0.00000000000000	0.00000000000000	0.00000000000000	0.00000000000000	20.84682500000000	0.00000000000000	0.00000000000000	0.00000000000000	0.00000000000000	
11.88162400000000	41.97084200000000	728.80349200000001	58.45761200000000	0.30860800000000	0.00000000000000	0.16373800000000	0.00000000000000	0.00000000000000	0.00000000000000	0.00000000000000	0.00000000000000	0.00000000000000	0.00000000000000	21.03887400000000	0.00000000000000	0.00000000000000	0.00000000000000	0.00000000000000	
11.88328900000000	41.50357300000000	732.27865399999996	58.69638200000000	0.30783600000000	0.00000000000000	0.16368700000000	0.00000000000000	0.00000000000000	0.00000000000000	0.00000000000000	0.00000000000000	0.00000000000000	0.00000000000000	21.22939600000000	0.00000000000000	0.00000000000000	0.00000000000000	0.00000000000000	
11.88495500000000	41.03799200000000	735.67547800000000	58.93017700000000	0.30708600000000	0.00000000000000	0.16363600000000	0.00000000000000	0.00000000000000	0.00000000000000	0.00000000000000	0.00000000000000	0.00000000000000	0.00000000000000	21.41798400000000	0.00000000000000	0.00000000000000	0.00000000000000	0.00000000000000	
11.88663100000000	40.57459700000000	738.99015399999996	59.15846900000000	0.30635700000000	0.00000000000000	0.16358400000000	0.00000000000000	0.00000000000000	0.00000000000000	0.00000000000000	0.00000000000000	0.00000000000000	0.00000000000000	21.60421100000000	0.00000000000000	0.00000000000000	0.00000000000000	0.00000000000000	
11.88829600000000	40.11382800000000	742.21886800000004	59.38069000000000	0.30564800000000	0.00000000000000	0.16353300000000	0.00000000000000	0.00000000000000	0.00000000000000	0.00000000000000	0.00000000000000	0.00000000000000	0.00000000000000	21.78763800000000	0.00000000000000	0.00000000000000	0.00000000000000	0.00000000000000	
11.88995800000000	39.65606700000000	745.35782500000005	59.59623600000000	0.30495700000000	0.00000000000000	0.16348100000000	0.00000000000000	0.00000000000000	0.00000000000000	0.00000000000000	0.00000000000000	0.00000000000000	0.00000000000000	21.96781500000000	0.00000000000000	0.00000000000000	0.00000000000000	0.00000000000000	
11.89162700000000	39.20163900000000	748.40326500000003	59.80447400000000	0.30428400000000	0.00000000000000	0.16342900000000	0.00000000000000	0.00000000000000	0.00000000000000	0.00000000000000	0.00000000000000	0.00000000000000	0.00000000000000	22.14428500000000	0.00000000000000	0.00000000000000	0.00000000000000	0.00000000000000	
11.89329500000000	38.75081700000000	751.35149000000001	60.00474600000000	0.30362700000000	0.00000000000000	0.16337600000000	0.00000000000000	0.00000000000000	0.00000000000000	0.00000000000000	0.00000000000000	0.00000000000000	0.00000000000000	22.31658400000000	0.00000000000000	0.00000000000000	0.00000000000000	0.00000000000000	
11.89496100000000	38.30382100000000	754.19887400000005	60.19637500000000	0.30298400000000	0.00000000000000	0.16332300000000	0.00000000000000	0.00000000000000	0.00000000000000	0.00000000000000	0.00000000000000	0.00000000000000	0.00000000000000	22.48424800000000	0.00000000000000	0.00000000000000	0.00000000000000	0.00000000000000	
11.89662300000000	37.86082300000000	756.94189100000006	60.37867000000000	0.30235400000000	0.00000000000000	0.16326900000000	0.00000000000000	0.00000000000000	0.00000000000000	0.00000000000000	0.00000000000000	0.00000000000000	0.00000000000000	22.64681400000000	0.00000000000000	0.00000000000000	0.00000000000000	0.00000000000000	
11.89829600000000	37.42194700000000	759.57712900000001	60.55093300000000	0.30173400000000	0.00000000000000	0.16321400000000	0.00000000000000	0.00000000000000	0.00000000000000	0.00000000000000	0.00000000000000	0.00000000000000	0.00000000000000	22.80382100000000	0.00000000000000	0.00000000000000	0.00000000000000	0.00000000000000	
11.89996000000000	36.98727600000000	762.10130700000002	60.71246200000000	0.30112400000000	0.00000000000000	0.16315900000000	0.00000000000000	0.00000000000000	0.00000000000000	0.00000000000000	0.00000000000000	0.00000000000000	0.00000000000000	22.95481700000000	0.00000000000000	0.00000000000000	0.00000000000000	0.00000000000000	
11.90163000000000	36.55685000000000	764.51129700000001	60.86256100000000	0.30052200000000	0.00000000000000	0.16310300000000	0.00000000000000	0.00000000000000	0.00000000000000	0.00000000000000	0.00000000000000	0.00000000000000	0.00000000000000	23.09936000000000	0.00000000000000	0.00000000000000	0.00000000000000	0.00000000000000	
11.90329300000000	36.13067300000000	766.80413299999998	61.00053800000000	0.29992700000000	0.00000000000000	0.16304700000000	0.00000000000000	0.00000000000000	0.00000000000000	0.00000000000000	0.00000000000000	0.00000000000000	0.00000000000000	23.23701800000000	0.00000000000000	0.00000000000000	0.00000000000000	0.00000000000000	
11.90495800000000	35.70871600000000	768.97703300000001	61.12572100000000	0.29933500000000	0.00000000000000	0.16298900000000	0.00000000000000	0.00000000000000	0.00000000000000	0.00000000000000	0.00000000000000	0.00000000000000	0.00000000000000	23.36737800000000	0.00000000000000	0.00000000000000	0.00000000000000	0.00000000000000	
11.90662300000000	35.29091700000000	771.02741100000003	61.23745300000000	0.29874600000000	0.00000000000000	0.16293100000000	0.00000000000000	0.00000000000000	0.00000000000000	0.00000000000000	0.00000000000000	0.00000000000000	0.00000000000000	23.49004300000000	0.00000000000000	0.00000000000000	0.00000000000000	0.00000000000000	
11.90829000000000	34.87719100000000	772.95288800000003	61.33510300000000	0.29815900000000	0.00000000000000	0.16287200000000	0.00000000000000	0.00000000000000	0.00000000000000	0.00000000000000	0.00000000000000	0.00000000000000	0.00000000000000	23.60463500000000	0.00000000000000	0.00000000000000	0.00000000000000	0.00000000000000	
11.90996300000000	34.46742400000000	774.75130899999999	61.41807000000000	0.29757100000000	0.00000000000000	0.16281100000000	0.00000000000000	0.00000000000000	0.00000000000000	0.00000000000000	0.00000000000000	0.00000000000000	0.00000000000000	23.71080400000000	0.00000000000000	0.00000000000000	0.00000000000000	0.00000000000000	
11.91162200000000	34.06148800000000	776.42075100000000	61.48578600000000	0.29698000000000	0.00000000000000	0.16275000000000	0.00000000000000	0.00000000000000	0.00000000000000	0.00000000000000	0.00000000000000	0.00000000000000	0.00000000000000	23.80822000000000	0.00000000000000	0.00000000000000	0.00000000000000	0.00000000000000	
11.91329200000000	33.65923300000000	777.95953499999996	61.53772100000000	0.29638700000000	0.00000000000000	0.16268700000000	0.00000000000000	0.00000000000000	0.00000000000000	0.00000000000000	0.00000000000000	0.00000000000000	0.00000000000000	23.89658200000000	0.00000000000000	0.00000000000000	0.00000000000000	0.00000000000000	
11.91496200000000	33.26050000000000	779.36623199999997	61.57338800000000	0.29578700000000	0.00000000000000	0.16262400000000	0.00000000000000	0.00000000000000	0.00000000000000	0.00000000000000	0.00000000000000	0.00000000000000	0.00000000000000	23.97562100000000	0.00000000000000	0.00000000000000	0.00000000000000	0.00000000000000	
11.91662400000000	32.86511600000000	780.63967700000001	61.59234700000000	0.29518100000000	0.00000000000000	0.16255900000000	0.00000000000000	0.00000000000000	0.00000000000000	0.00000000000000	0.00000000000000	0.00000000000000	0.00000000000000	24.04509400000000	0.00000000000000	0.00000000000000	0.00000000000000	0.00000000000000	
11.91829200000000	32.47290600000000	781.77896999999996	61.59420400000000	0.29456700000000	0.00000000000000	0.16249300000000	0.00000000000000	0.00000000000000	0.00000000000000	0.00000000000000	0.00000000000000	0.00000000000000	0.00000000000000	24.10479500000000	0.00000000000000	0.00000000000000	0.00000000000000	0.00000000000000	
11.91996100000000	32.08368800000000	782.78348200000005	61.57862200000000	0.29394400000000	0.00000000000000	0.16242600000000	0.00000000000000	0.00000000000000	0.00000000000000	0.00000000000000	0.00000000000000	0.00000000000000	0.00000000000000	24.15454800000000	0.00000000000000	0.00000000000000	0.00000000000000	0.00000000000000	
11.92162800000000	31.69728100000000	783.65286300000002	61.54531500000000	0.29331000000000	0.00000000000000	0.16235700000000	0.00000000000000	0.00000000000000	0.00000000000000	0.00000000000000	0.00000000000000	0.00000000000000	0.00000000000000	24.19421500000000	0.00000000000000	0.00000000000000	0.00000000000000	0.00000000000000	
